.
 
http://www.scenetime.com    -   SceneTime [ We been having it ] !!!


How come you press harder on a remote control when you know the battery is dead? so you better seed to get speed ;)

        Seed back for speed


...................................NFO:.................................................








































          
          
              
              
                    
                    
                    
                    

There.Be.Dragons.2011.BRRip.x264-SiC

Poster:
[img]http://img6.imageshack.us/img6/434/25301front.jpg[/img]

IMDB Link:
http://www.imdb.com/title/tt1316616/

Description:
Arising out of the horror of the Spanish Civil War, a candidate for canonization is investigated by a journalist who discovers his own estranged father had a deep, dark and devastating connection to the saint's life.

MediaInfo:
General
Complete name                    : There.Be.Dragons.2011.BRRip.x264-SiC.mp4
Format                           : MPEG-4
Format profile                   : Base Media
Codec ID                         : isom
File size                        : 1.30 GiB
Duration                         : 2h 1mn
Overall bit rate                 : 1 530 Kbps
Encoded date                     : UTC 2011-08-03 00:02:23
Tagged date                      : UTC 2011-08-03 00:02:23

Video
ID                               : 1
Format                           : AVC
Format/Info                      : Advanced Video Codec
Format profile                   : High@L3.0
Format settings, CABAC           : Yes
Format settings, ReFrames        : 4 frames
Codec ID                         : avc1
Codec ID/Info                    : Advanced Video Coding
Duration                         : 2h 1mn
Bit rate mode                    : Variable
Bit rate                         : 1 145 Kbps
Maximum bit rate                 : 5 564 Kbps
Width                            : 720 pixels
Height                           : 304 pixels
Display aspect ratio             : 2.35:1
Frame rate mode                  : Constant
Frame rate                       : 24.000 fps
Resolution                       : 8 bits
Colorimetry                      : 4:2:0
Scan type                        : Progressive
Bits/(Pixel*Frame)               : 0.218
Stream size                      : 997 MiB (75%)
Title                            : There.Be.Dragons.2011.BRRip.x264-SiC
Encoded date                     : UTC 2011-08-03 00:02:23
Tagged date                      : UTC 2011-08-03 00:02:54

Audio
ID                               : 2
Format                           : AAC
Format/Info                      : Advanced Audio Codec
Format version                   : Version 4
Format profile                   : LC
Format settings, SBR             : No
Codec ID                         : 40
Duration                         : 2h 1mn
Bit rate mode                    : Variable
Bit rate                         : 384 Kbps
Maximum bit rate                 : 455 Kbps
Channel(s)                       : 6 channels
Channel positions                : Front: L C R, Side: L R, LFE
Sampling rate                    : 48.0 KHz
Stream size                      : 332 MiB (25%)
Title                            : 2ch English
Language                         : English
Encoded date                     : UTC 2011-08-03 00:02:43
Tagged date                      : UTC 2011-08-03 00:02:54

Screenshots:
[img]http://leetleech.org/images/39179812314271272726.png[/img]
[img]http://leetleech.org/images/67603671932341370841.png[/img]
[img]http://leetleech.org/images/05999053953408758476.png[/img]
[img]http://leetleech.org/images/22787188263916906684.png[/img]
[img]http://leetleech.org/images/90800176353897952180.png[/img]

Note :   N/A 

Source : BluRay-HDChina Thanks!!!

Encoder: Bezauk

Enjoy!

Respects to CaptainHomey, Cyanide, CM8, Rx, THC, ELEKTRI4KA, 
Killerhz, PA, YeFsTe, BoxSlots, MrRep and everyone in the struggle...